<svg xmlns="http://www.w3.org/2000/svg" width="512" height="512" viewBox="0 0 512 512" version="1.1">
	<path d="M 34.243 122.056 L 34.500 189.113 47 195.653 C 53.875 199.250, 68.421 206.875, 79.325 212.597 L 99.151 223 166.075 223 L 233 223 233 155.500 C 233 118.375, 232.656 88, 232.237 88 C 231.817 88, 217.304 80.580, 199.987 71.511 L 168.500 55.022 101.243 55.011 L 33.986 55 34.243 122.056 M 336.500 60.336 C 311.970 73.293, 284.393 87.528, 283.250 87.823 C 282.266 88.078, 282 102.471, 282 155.573 L 282 223 349.520 223 L 417.040 223 420.770 220.664 C 422.821 219.379, 433.275 213.774, 444 208.210 C 454.725 202.645, 467.325 196.082, 472 193.625 L 480.500 189.159 480.757 122.080 L 481.014 55 413.757 55.027 L 346.500 55.054 336.500 60.336 M 92.500 275.376 C 89.200 277.182, 79.750 282.164, 71.500 286.448 C 63.250 290.731, 51.438 296.921, 45.250 300.201 L 34 306.166 34 373.083 L 34 440 101.250 439.965 L 168.500 439.931 186.500 430.456 C 196.400 425.245, 210.912 417.724, 218.750 413.743 L 233 406.504 233 339.252 L 233 272 165.750 272.047 L 98.500 272.093 92.500 275.376 M 282.004 339.250 L 282.008 406.500 295.254 413.190 C 302.539 416.869, 317.096 424.407, 327.602 429.940 L 346.704 440 413.852 440 L 481 440 481 373.075 L 481 306.151 468.250 299.429 C 450.450 290.046, 436.867 282.918, 427.500 278.046 C 423.100 275.757, 419.072 273.460, 418.550 272.942 C 417.974 272.371, 390.890 272, 349.800 272 L 282 272 282.004 339.250" stroke="none" fill="black" fill-rule="evenodd"/>
</svg>